# xmcd CD database file
#
# Track frame offsets:
#	150
#	13932
#	26887
#	38250
#	50102
#	61967
#	75622
#	87492
#	97572
#	110990
#	124310
#	134737
#	152070
#	164070
#
# Disc length: 2349 seconds
#
# Revision: 0
# Processed by: cddbd v1.5.1PL0 Copyright (c) Steve Scherf et al.
# Submitted via: CDex 1.51
#
DISCID=c1092b0e
DTITLE=Kenny Ball+His Jazzmen - At Their Best
DYEAR=1900
DGENRE=Jazz
TTITLE0=Minnie The Moocher
TTITLE1=Midnight In Moscow
TTITLE2=I Wanna Be Like You
TTITLE3=Scorpio Blues
TTITLE4=March Of The Siamese Children
TTITLE5=You Are My Sunshine
TTITLE6=Sailing
TTITLE7=Samantha
TTITLE8=Eyes
TTITLE9=It's Life
TTITLE10=So Do I
TTITLE11=One Night Stand
TTITLE12=Annie's Song
TTITLE13=Is That The Human Thing To Do
EXTD=
EXTT0=
EXTT1=
EXTT2=
EXTT3=
EXTT4=
EXTT5=
EXTT6=
EXTT7=
EXTT8=
EXTT9=
EXTT10=
EXTT11=
EXTT12=
EXTT13=
PLAYORDER=
